<svg width="512px" height="512px" viewBox="0 0 512 512" version="1.1" xmlns="http://www.w3.org/2000/svg" aria-hidden="true" role="img" focusable="false" preserveAspectRatio="xMidYMid meet"><rect fill="#FFFFFF" x="0" y="0" width="512" height="512" rx="20"></rect><path d="M364,320.5 C364,350.313333 353.536667,375.683333 332.61,396.61 C311.683333,417.536667 286.313333,428 256.5,428 C226.686667,428 201.316667,417.536667 180.39,396.61 C159.463333,375.683333 149,350.313333 149,320.5 L149,161.4 C149,139.9 156.525,121.625 171.575,106.575 C186.625,91.525 204.9,84 226.4,84 C247.9,84 266.175,91.525 281.225,106.575 C296.275,121.625 303.8,139.9 303.8,161.4 L303.8,311.9 C303.8,325.086667 299.213333,336.266667 290.04,345.44 C280.866667,354.613333 269.686667,359.2 256.5,359.2 C243.313333,359.2 232.133333,354.613333 222.96,345.44 C213.786667,336.266667 209.2,325.086667 209.2,311.9 L209.2,152.8 L243.6,152.8 L243.6,311.9 C243.6,315.626667 244.818333,318.708333 247.255,321.145 C249.691667,323.581667 252.773333,324.8 256.5,324.8 C260.226667,324.8 263.308333,323.581667 265.745,321.145 C268.181667,318.708333 269.4,315.626667 269.4,311.9 L269.4,161.4 C269.113333,149.36 264.885,139.183333 256.715,130.87 C248.545,122.556667 238.44,118.4 226.4,118.4 C214.36,118.4 204.183333,122.556667 195.87,130.87 C187.556667,139.183333 183.4,149.36 183.4,161.4 L183.4,320.5 C183.113333,340.853333 190.136667,358.125 204.47,372.315 C218.803333,386.505 236.146667,393.6 256.5,393.6 C276.566667,393.6 293.623333,386.505 307.67,372.315 C321.716667,358.125 329.026667,340.853333 329.6,320.5 L329.6,152.8 L364,152.8 L364,320.5 Z" fill="#000000" fill-rule="nonzero"></path></svg>