<svg width="384px" height="384px" viewBox="0 0 384 384" version="1.1" xmlns="http://www.w3.org/2000/svg" aria-hidden="true" role="img" focusable="false" preserveAspectRatio="xMidYMid meet"><rect fill="#FFFFFF" x="0" y="0" width="384" height="384" rx="20"></rect><path d="M269,238.5 C269,259.993333 261.456667,278.283333 246.37,293.37 C231.283333,308.456667 212.993333,316 191.5,316 C170.006667,316 151.716667,308.456667 136.63,293.37 C121.543333,278.283333 114,259.993333 114,238.5 L114,123.8 C114,108.3 119.425,95.125 130.275,84.275 C141.125,73.425 154.3,68 169.8,68 C185.3,68 198.475,73.425 209.325,84.275 C220.175,95.125 225.6,108.3 225.6,123.8 L225.6,232.3 C225.6,241.806667 222.293333,249.866667 215.68,256.48 C209.066667,263.093333 201.006667,266.4 191.5,266.4 C181.993333,266.4 173.933333,263.093333 167.32,256.48 C160.706667,249.866667 157.4,241.806667 157.4,232.3 L157.4,117.6 L182.2,117.6 L182.2,232.3 C182.2,234.986667 183.078333,237.208333 184.835,238.965 C186.591667,240.721667 188.813333,241.6 191.5,241.6 C194.186667,241.6 196.408333,240.721667 198.165,238.965 C199.921667,237.208333 200.8,234.986667 200.8,232.3 L200.8,123.8 C200.593333,115.12 197.545,107.783333 191.655,101.79 C185.765,95.7966667 178.48,92.8 169.8,92.8 C161.12,92.8 153.783333,95.7966667 147.79,101.79 C141.796667,107.783333 138.8,115.12 138.8,123.8 L138.8,238.5 C138.593333,253.173333 143.656667,265.625 153.99,275.855 C164.323333,286.085 176.826667,291.2 191.5,291.2 C205.966667,291.2 218.263333,286.085 228.39,275.855 C238.516667,265.625 243.786667,253.173333 244.2,238.5 L244.2,117.6 L269,117.6 L269,238.5 Z" fill="#000000" fill-rule="nonzero"></path></svg>