<svg width="512px" height="512px" viewBox="0 0 512 512" version="1.1" xmlns="http://www.w3.org/2000/svg" aria-hidden="true" role="img" focusable="false" preserveAspectRatio="xMidYMid meet"><rect fill="#FFFFFF" x="0" y="0" width="512" height="512" rx="80"></rect><path d="M391,337 C391,374.44 377.86,406.3 351.58,432.58 C325.3,458.86 293.44,472 256,472 C218.56,472 186.7,458.86 160.42,432.58 C134.14,406.3 121,374.44 121,337 L121,137.2 C121,110.2 130.45,87.25 149.35,68.35 C168.25,49.45 191.2,40 218.2,40 C245.2,40 268.15,49.45 287.05,68.35 C305.95,87.25 315.4,110.2 315.4,137.2 L315.4,326.2 C315.4,342.76 309.64,356.8 298.12,368.32 C286.6,379.84 272.56,385.6 256,385.6 C239.44,385.6 225.4,379.84 213.88,368.32 C202.36,356.8 196.6,342.76 196.6,326.2 L196.6,126.4 L239.8,126.4 L239.8,326.2 C239.8,330.88 241.33,334.75 244.39,337.81 C247.45,340.87 251.32,342.4 256,342.4 C260.68,342.4 264.55,340.87 267.61,337.81 C270.67,334.75 272.2,330.88 272.2,326.2 L272.2,137.2 C271.84,122.08 266.53,109.3 256.27,98.86 C246.01,88.42 233.32,83.2 218.2,83.2 C203.08,83.2 190.3,88.42 179.86,98.86 C169.42,109.3 164.2,122.08 164.2,137.2 L164.2,337 C163.84,362.56 172.66,384.25 190.66,402.07 C208.66,419.89 230.44,428.8 256,428.8 C281.2,428.8 302.62,419.89 320.26,402.07 C337.9,384.25 347.08,362.56 347.8,337 L347.8,126.4 L391,126.4 L391,337 Z" fill="#000000" fill-rule="nonzero"></path></svg>