<svg width="256px" height="256px" viewBox="0 0 256 256" version="1.1" xmlns="http://www.w3.org/2000/svg"  aria-hidden="true" role="img" focusable="false" preserveAspectRatio="xMidYMid meet"><rect fill="#FFFFFF" x="0" y="0" width="256" height="256" rx="20"></rect><path d="M185,162.5 C185,178.446667 179.403333,192.016667 168.21,203.21 C157.016667,214.403333 143.446667,220 127.5,220 C111.553333,220 97.9833333,214.403333 86.79,203.21 C75.5966667,192.016667 70,178.446667 70,162.5 L70,77.4 C70,65.9 74.025,56.125 82.075,48.075 C90.125,40.025 99.9,36 111.4,36 C122.9,36 132.675,40.025 140.725,48.075 C148.775,56.125 152.8,65.9 152.8,77.4 L152.8,157.9 C152.8,164.953333 150.346667,170.933333 145.44,175.84 C140.533333,180.746667 134.553333,183.2 127.5,183.2 C120.446667,183.2 114.466667,180.746667 109.56,175.84 C104.653333,170.933333 102.2,164.953333 102.2,157.9 L102.2,72.8 L120.6,72.8 L120.6,157.9 C120.6,159.893333 121.251667,161.541667 122.555,162.845 C123.858333,164.148333 125.506667,164.8 127.5,164.8 C129.493333,164.8 131.141667,164.148333 132.445,162.845 C133.748333,161.541667 134.4,159.893333 134.4,157.9 L134.4,77.4 C134.246667,70.96 131.985,65.5166667 127.615,61.07 C123.245,56.6233333 117.84,54.4 111.4,54.4 C104.96,54.4 99.5166667,56.6233333 95.07,61.07 C90.6233333,65.5166667 88.4,70.96 88.4,77.4 L88.4,162.5 C88.2466667,173.386667 92.0033333,182.625 99.67,190.215 C107.336667,197.805 116.613333,201.6 127.5,201.6 C138.233333,201.6 147.356667,197.805 154.87,190.215 C162.383333,182.625 166.293333,173.386667 166.6,162.5 L166.6,72.8 L185,72.8 L185,162.5 Z" fill="#000000" fill-rule="nonzero"></path></svg>