<svg width="192px" height="192px" viewBox="0 0 192 192" version="1.1" xmlns="http://www.w3.org/2000/svg" aria-hidden="true" role="img" focusable="false" preserveAspectRatio="xMidYMid meet"><rect fill="#FFFFFF" x="0" y="0" width="192" height="192" rx="20"></rect><path d="M148,127.5 C148,142.06 142.89,154.45 132.67,164.67 C122.45,174.89 110.06,180 95.5,180 C80.94,180 68.55,174.89 58.33,164.67 C48.11,154.45 43,142.06 43,127.5 L43,49.8 C43,39.3 46.675,30.375 54.025,23.025 C61.375,15.675 70.3,12 80.8,12 C91.3,12 100.225,15.675 107.575,23.025 C114.925,30.375 118.6,39.3 118.6,49.8 L118.6,123.3 C118.6,129.74 116.36,135.2 111.88,139.68 C107.4,144.16 101.94,146.4 95.5,146.4 C89.06,146.4 83.6,144.16 79.12,139.68 C74.64,135.2 72.4,129.74 72.4,123.3 L72.4,45.6 L89.2,45.6 L89.2,123.3 C89.2,125.12 89.795,126.625 90.985,127.815 C92.175,129.005 93.68,129.6 95.5,129.6 C97.32,129.6 98.825,129.005 100.015,127.815 C101.205,126.625 101.8,125.12 101.8,123.3 L101.8,49.8 C101.66,43.92 99.595,38.95 95.605,34.89 C91.615,30.83 86.68,28.8 80.8,28.8 C74.92,28.8 69.95,30.83 65.89,34.89 C61.83,38.95 59.8,43.92 59.8,49.8 L59.8,127.5 C59.66,137.44 63.09,145.875 70.09,152.805 C77.09,159.735 85.56,163.2 95.5,163.2 C105.3,163.2 113.63,159.735 120.49,152.805 C127.35,145.875 130.92,137.44 131.2,127.5 L131.2,45.6 L148,45.6 L148,127.5 Z" fill="#000000" fill-rule="nonzero"></path></svg>